<?xml version="1.0" encoding="UTF-8"?>
<svg width="196px" height="196px" viewBox="0 0 196 196" version="1.1" xmlns="http://www.w3.org/2000/svg" xmlns:xlink="http://www.w3.org/1999/xlink">
    <!-- Generator: Sketch 53.2 (72643) - https://sketchapp.com -->
    <title>icon</title>
    <desc>Created with Sketch.</desc>
    <g id="icon" stroke="none" stroke-width="1" fill="none" fill-rule="evenodd">
        <path d="M36.3548435,26 C31.9900121,26.0000003 28.4516172,29.5423632 28.4516172,33.9120893 C28.4516172,38.2818154 31.9900121,41.8241784 36.3548435,41.8241787 L99.5806584,41.8241787 C103.94549,41.8241787 107.483885,45.3665418 107.483885,49.736268 C107.483885,54.1059943 103.94549,57.6483574 99.5806584,57.6483574 L20.5483898,57.6483574 C16.1835583,57.6483576 12.6451634,61.1907206 12.6451634,65.5604467 C12.6451634,69.9301728 16.1835583,73.4725358 20.5483898,73.4725361 L64.8064863,73.4725361 C69.1657055,73.4804633 72.6953573,77.0204976 72.6953573,81.3846124 C72.6953573,85.7487271 69.1657055,89.2887614 64.8064863,89.2966887 L41.8870893,89.2966887 C37.0916534,89.3050033 33.2085833,93.1991663 33.2085833,97.9999869 C33.2085833,102.800808 37.0916534,106.694971 41.8870893,106.703285 L72.709661,106.703285 C77.0744924,106.703286 80.6128872,110.245649 80.6128872,114.615375 C80.6128872,118.985101 77.0744924,122.527464 72.709661,122.527464 L7.90322686,122.527464 C3.53839519,122.527464 0,126.069827 0,130.439553 C0,134.80928 3.53839519,138.351643 7.90322686,138.351643 L91.6774055,138.351643 C96.0422371,138.351643 99.5806323,141.894006 99.5806323,146.263732 C99.5806323,150.633458 96.0422371,154.175821 91.6774055,154.175821 L41.0967797,154.175821 C36.731948,154.175821 33.1935528,157.718184 33.1935528,162.087911 C33.1935528,166.457637 36.731948,170 41.0967797,170 L179.1408,170 C188.440579,169.972745 195.972775,162.432102 196,153.121894 L196,42.8780797 C195.972789,33.5678705 188.44058,26.0272267 179.1408,26 L36.3548435,26 Z M146.102578,121 L134.481102,121 L124.000065,84.9289721 L113.376927,121 L101.826203,121 L85,71 L97.1205286,71 L107.957764,109.142753 L118.723729,71 L129.775323,71 L140.683337,109.142753 L151.378628,71 L163,71 L146.102578,121 Z" id="Shape" fill="#000000"></path>
    </g>
</svg>